<?xml version="1.0" encoding="utf-8"?>
<!-- Generator: Adobe Illustrator 24.0.0, SVG Export Plug-In . SVG Version: 6.00 Build 0)  -->
<svg version="1.2" baseProfile="tiny" id="Layer_1" xmlns="http://www.w3.org/2000/svg" xmlns:xlink="http://www.w3.org/1999/xlink"
	 x="0px" y="0px" viewBox="0 0 280 159.8" xml:space="preserve">
<circle fill="#262262" cx="54.9" cy="30.3" r="16.9"/>
<circle fill="#262262" cx="103.2" cy="46.5" r="11.2"/>
<circle fill="#262262" cx="204.8" cy="42.9" r="11.2"/>
<circle fill="#262262" cx="263.1" cy="16.9" r="16.9"/>
<path fill="none" d="M145.7,73.3h-5l-19.5,72.8h6.4c4.6,0,7.6-2.3,8.9-7.2l15.2-57.2C153.1,76.2,151.1,73.3,145.7,73.3z"/>
<path fill="none" d="M42.1,72.5c-3.5,0-5.7,1.8-6.6,5.5l-10.9,40.8h13.4l10.4-39C49.6,75,47.7,72.5,42.1,72.5z"/>
<path fill="none" d="M100.8,81.8c1.4-5.6-0.5-8.5-6.1-8.5h-5l-7.4,27.8H90c3.8,0,6.3-2.1,7.4-6.5L100.8,81.8z"/>
<path fill="none" d="M196.1,72.5c-3.5,0-5.7,1.8-6.6,5.5l-10.9,40.8h13.4l10.4-39C203.6,75,201.7,72.5,196.1,72.5z"/>
<path fill="#262262" d="M43.3,59.6c-10.4,0-17.2,4.6-19.5,13.4l-12.2,45.7H3.3L0,131.2h8.1l-7.3,27.4h13l7.3-27.4h13.4l-7.3,27.4h13
	L61,81C64.8,66.9,58.6,59.6,43.3,59.6z M48.3,79.8l-10.4,39H24.5L35.4,78c0.9-3.6,3.1-5.5,6.6-5.5C47.7,72.5,49.6,75,48.3,79.8z"/>
<path fill="#262262" d="M97.3,107.2c7-1.4,11.3-5.5,13.2-12.2l3.3-12.4c3.8-14.5-1.6-21.6-16.2-21.6H80l-10.7,40.1h-8.1L58,113.5
	h7.9l-12,45.1h13l12-45.1h7.8c3.8,0,4.8,2.9,3.3,8.7l-9.8,36.4h13.3l9.9-37.5C105.3,114,103.3,109.4,97.3,107.2z M90,101.1h-7.7
	l7.4-27.8h5c5.6,0,7.6,2.9,6.1,8.5l-3.4,12.8C96.3,99,93.8,101.1,90,101.1z"/>
<path fill="#262262" d="M197.3,59.6c-10.4,0-17.2,4.6-19.5,13.4l-12.2,45.7h-10.6l-3.3,12.4h10.5l-7.3,27.4h13l7.3-27.4h13.4
	l-7.3,27.4h13L215,81C218.8,66.9,212.6,59.6,197.3,59.6z M202.3,79.8l-10.4,39h-13.4L189.4,78c0.9-3.6,3.1-5.5,6.6-5.5
	C201.7,72.5,203.6,75,202.3,79.8z"/>
<path fill="#262262" d="M247.9,59.6c-10.6,0-17.3,4.6-19.7,13.4l-17.5,65.4c-3.5,13.4,3.1,21.4,17.9,21.4c10,0,17.2-5,19.5-13.4
	l3.6-13.2h-13l-2.3,8.2c-0.9,3.4-3.6,5.5-7.2,5.5c-4.8,0-6.9-2.7-5.7-7.3L240,78c0.9-3.6,3.5-5.5,7.3-5.5c4.8,0,6.8,2.5,5.6,7.3
	l-1.6,6.4h12.9l1.3-5.2C269.1,66.9,263.1,59.6,247.9,59.6z"/>
<path fill="#FBB040" d="M131.6,55.3c5.7-0.2,4.1,4.2,7.8,3.8c-0.1-0.9-0.1-1.8,0-2.7c0.1-0.7,0.2-1.3,0.4-2
	c-2.2,1.4-4.3-3.1-8.4,0.6c-0.1,0.1-0.1,0.2,0,0.2C131.5,55.3,131.5,55.3,131.6,55.3z"/>
<path fill="#FBB040" d="M141.4,51.4c1-1.3,2.2-2.3,3.6-3c-2.5-0.6-0.8-5.2-6.3-5.5c-0.1,0-0.2,0.1-0.2,0.2c0,0,0,0.1,0.1,0.1
	C142.7,47.1,138.4,49.1,141.4,51.4z"/>
<path fill="#FBB040" d="M160,56.2c0.1,0.9,0.1,1.8,0,2.7c-0.1,0.7-0.2,1.3-0.4,2c2.2-1.4,4.3,3.1,8.4-0.6c0.1-0.1,0.1-0.2,0-0.2
	c0,0-0.1-0.1-0.1-0.1C162.1,60.2,163.8,55.8,160,56.2z"/>
<path fill="#FBB040" d="M151,47.4c0.7,0.1,1.3,0.2,2,0.4c-1.4-2.2,3.1-4.3-0.6-8.4c-0.1-0.1-0.2-0.1-0.2,0c0,0-0.1,0.1-0.1,0.1
	c0.2,5.7-4.2,4.1-3.8,7.8C149.1,47.3,150.1,47.3,151,47.4z"/>
<path fill="#FBB040" d="M159,53c0.6-2.5,5.2-0.8,5.5-6.3c0-0.1-0.1-0.2-0.2-0.2c0,0-0.1,0-0.1,0.1c-3.9,4.1-5.9-0.1-8.2,2.9
	C157.2,50.3,158.2,51.6,159,53z"/>
<path fill="#FBB040" d="M156.8,62.1c0.6-1,1-2.1,1.2-3.3c0.6-4.6-2.7-8.7-7.2-9.3c-4.6-0.6-8.7,2.7-9.3,7.2c-0.2,1.5,0.1,3,0.6,4.3
	h6.2C151.6,60.9,154.4,61.3,156.8,62.1z"/>
<path fill="#FFFFFF" d="M148.7,65.9c3.3,0.4,6.4-1.2,8.1-3.9c-2.4-0.7-5.2-1.1-8.5-1.1h-6.2C143.2,63.6,145.6,65.6,148.7,65.9z"/>
<path fill="#262262" d="M156.8,62.1c-1.7,2.7-4.8,4.3-8.1,3.9c-3-0.4-5.5-2.4-6.6-5h-11.1l-26.1,97.6h23.2
	c10.8,0,17.2-4.2,19.5-12.6l3.9-14.7l3.3-12.4l9.7-36.2C167.6,71.4,165,64.5,156.8,62.1z M151.7,81.8L136.4,139
	c-1.3,4.8-4.3,7.2-8.9,7.2h-6.4l19.5-72.8h5C151.1,73.3,153.1,76.2,151.7,81.8z"/>
</svg>
